<svg xmlns="http://www.w3.org/2000/svg" width="56.999" height="56.999" viewBox="0 0 15.081 15.081" xmlns:v="https://vecta.io/nano"><defs><linearGradient ><stop offset="0" stop-color="#2c54db"/><stop offset="1" stop-color="#c733c5"/></linearGradient></defs><path d="M3.679 7.272q0-1.497 1.075-2.58.91-.918 2.125-1.067V1.872l1.323-.579v2.332q1.215.149 2.125 1.067 1.067 1.075 1.075 2.629v.025q0 1.546-1.075 2.621-.91.91-2.125 1.058v2.183l-1.323.579v-2.762q-1.232-.149-2.125-1.058-1.075-1.091-1.075-2.695zm4.523-2.315v4.729q.719-.132 1.232-.661.711-.728.711-1.703 0-.992-.703-1.703-.537-.537-1.24-.661zM6.879 9.686V4.956q-.703.132-1.232.661-.711.711-.711 1.695v.008q.008 1 .711 1.703.529.529 1.232.661z" fill="#fff"/></svg>